Coordinates
version=1
nRows=4
nColumns=63
inDegrees=yes

Units are S.I. units (second, meters, Newtons, ...)
If the header above contains a line with 'inDegrees', this indicates whether rotational values are in degrees (yes) or radians (no).

endheader
time	pelvis_tilt	pelvis_list	pelvis_rotation	pelvis_tx	pelvis_ty	pelvis_tz	hip_flexion_r	hip_adduction_r	hip_rotation_r	knee_angle_r	knee_angle_r_beta	ankle_angle_r	subtalar_angle_r	mtp_angle_r	hip_flexion_l	hip_adduction_l	hip_rotation_l	knee_angle_l	knee_angle_l_beta	ankle_angle_l	subtalar_angle_l	mtp_angle_l	L5_S1_Flex_Ext	L5_S1_Lat_Bending	L5_S1_axial_rotation	L4_L5_Flex_Ext	L4_L5_Lat_Bending	L4_L5_axial_rotation	L3_L4_Flex_Ext	L3_L4_Lat_Bending	L3_L4_axial_rotation	L2_L3_Flex_Ext	L2_L3_Lat_Bending	L2_L3_axial_rotation	L1_L2_Flex_Ext	L1_L2_Lat_Bending	L1_L2_axial_rotation	L1_T12_Flex_Ext	L1_T12_Lat_Bending	L1_T12_axial_rotation	Abs_r3	Abs_r2	Abs_r1	Abs_t1	Abs_t2	neck_flexion	neck_bending	neck_rotation	arm_flex_r	arm_add_r	arm_rot_r	elbow_flex_r	pro_sup_r	wrist_flex_r	wrist_dev_r	arm_flex_l	arm_add_l	arm_rot_l	elbow_flex_l	pro_sup_l	wrist_flex_l	wrist_dev_l
      3.61538462	      6.20378540	     -7.78867166	     99.17637854	      0.20177875	      0.79537456	      0.67628139	     10.44665279	      5.56100336	      0.30879618	     24.50088767	      0.42762116	     43.44845954	     -7.26946121	      0.00000000	     11.20077550	     -2.17774230	      5.95417535	     27.30913333	      0.47663429	     46.99744326	     -8.01628685	      0.00000000	     -0.30615433	     -0.05910633	      0.72363711	     -0.56855921	     -0.07861142	      0.76886443	     -0.50298096	     -0.14371113	      0.76886443	     -0.34990379	     -0.14371113	      0.63318247	     -0.28429491	     -0.12052963	      0.58795515	     -0.17493659	     -0.09155570	      0.54272783	     -2.18682980	     -0.66862261	      4.02465251	      0.00000000	      0.00000000	      3.26440077	    -15.79579101	      6.26441578	     11.15305066	     -5.39699487	    110.49769581	      9.04575385	      2.72069667	     -2.25874067	    -16.45098744	     17.06001419	     -3.76346762	    128.01660066	      4.91406442	      3.82169651	     -2.80581800	    -15.25842179
      3.63461538	      6.29390330	     -7.47563932	     99.28138804	      0.20177222	      0.79533806	      0.67524762	     10.10311531	      5.73732533	      0.42894593	     24.42806066	      0.42635009	     43.67342541	     -7.25396754	      0.00000000	     10.61464506	     -2.45082137	      5.63091107	     27.01095880	      0.47143017	     46.85810437	     -7.85973286	      0.00000000	     -0.31444447	     -0.04583516	      0.74359438	     -0.58395482	     -0.06096076	      0.79006903	     -0.51660081	     -0.11144361	      0.79006903	     -0.35937858	     -0.11144361	      0.65064508	     -0.29199313	     -0.09346706	      0.60417043	     -0.17967357	     -0.07099866	      0.55769579	     -2.24604538	     -0.51849649	      4.13564886	      0.00000000	      0.00000000	      3.23140312	    -16.03461375	      6.55027788	     10.93605443	     -5.34266709	    110.60617940	      8.83690002	      2.71048392	     -2.07908093	    -16.29226488	     17.04340176	     -3.90177967	    128.06930579	      5.05041556	      3.92474388	     -2.42870945	    -14.12623382
      3.65384615	      6.29341312	     -7.26819991	     99.40529309	      0.20169762	      0.79511498	      0.67437935	      9.91431734	      5.83067888	      0.67865634	     24.48166463	      0.42728565	     43.88414244	     -7.39617551	      0.00000000	     10.09683242	     -2.56676943	      5.46858957	     26.63213650	      0.46481847	     46.81549377	     -7.76611480	      0.00000000	     -0.31566751	     -0.04422793	      0.75956666	     -0.58622613	     -0.05882314	      0.80703958	     -0.51861015	     -0.10753578	      0.80703958	     -0.36077639	     -0.10753578	      0.66462083	     -0.29312885	     -0.09018959	      0.61714791	     -0.18037241	     -0.06850906	      0.56967499	     -2.25478144	     -0.50031514	      4.22448189	      0.00000000	      0.00000000	      3.25963558	    -16.18626644	      6.70996337	     10.69270471	     -5.30773372	    110.67847560	      8.69756854	      2.64349419	     -2.01596217	    -16.10304399	     17.01712751	     -4.21093578	    128.22618771	      5.32715742	      4.28764700	     -2.38394923	    -12.51899068
      3.67307692	      6.20957878	     -7.12391838	     99.32989691	      0.20186459	      0.79487890	      0.67394584	      9.79767466	      5.86238946	      1.14580958	     24.55467469	      0.42855992	     44.06110463	     -7.45920886	      0.00000000	      9.66881275	     -2.58181582	      5.20020265	     26.28900196	      0.45882964	     46.91283210	     -7.65529204	      0.00000000	     -0.32587744	     -0.05437486	      0.81949303	     -0.60518700	     -0.07231856	      0.87071134	     -0.53538405	     -0.13220703	      0.87071134	     -0.37244533	     -0.13220703	      0.71705640	     -0.30260979	     -0.11088121	      0.66583809	     -0.18620637	     -0.08422666	      0.61461977	     -2.32770998	     -0.61509929	      4.55777439	      0.00000000	      0.00000000	      3.28534267	    -16.17810611	      6.50230873	     10.51830337	     -5.29289644	    110.68466781	      8.62288884	      2.57503474	     -1.98531431	    -15.99014012	     16.93212242	     -4.51118253	    128.78248141	      5.30569315	      4.95093895	     -2.52472437	    -10.58606344
